# xmcd
#
# Track frame offsets: 
#        150
#        9235
#        33480
#        47260
#        67047
#        89092
#        111317
#        131930
#        150612
#        172992
#        190075
#        207259
#        222717
#        239520
#        259912
#        276302
#        298165
#        310895
#        341177
#
# Disc length: 4703 seconds
#
# Revision: 2
# Processed by: cddbd v1.5.2PL0 Copyright (c) Steve Scherf et al.
# Submitted via: ExactAudioCopyFreeDBPlugin 1.0
#
DISCID=2e125d13
DTITLE=Various Artist - STEREO - Phonic Experience Vol.1
DYEAR=1995
DGENRE=
TTITLE0=Jazz Con Bazz - Open The Door And Listen.....
TTITLE1=Transglobal Underground - Taal Zaman
TTITLE2=The Boo Radleys - Reaching Out From Here
TTITLE3=Joe Satriani - Moroccan Sunset
TTITLE4=Tears for Fears - Don't Drink The Water
TTITLE5=Miles Davis - I Thought About You
TTITLE6=Buckshot LeFonque - Blackwidow
TTITLE7=Ottmar Liebert - Black Stone Buleria
TTITLE8=G. Love and Special Sauce - Tomorrow Night
TTITLE9=Chris Whitley - Narcotic Prayer
TTITLE10=Reef - Good Feeling
TTITLE11=Keb' Mo' - She Just Wants To Dance
TTITLE12=Hector Zazou - The Lighthouse
TTITLE13=Groove Corporation - Hypnotherapy
TTITLE14=Ruby - Paraffin
TTITLE15=Soul Asylum - String Of Pearls
TTITLE16=Ed Ball - If A Man Ever Loved A Woman
TTITLE17=Stanley Clarke - Passenger 57 Main Title
TTITLE18=Various Artist - Letní Bouřka, Přejezd parní lokomotivy (v b
TTITLE18=ouřce)
EXTD=
EXTT0=
EXTT1=
EXTT2=
EXTT3=
EXTT4=
EXTT5=
EXTT6=
EXTT7=
EXTT8=
EXTT9=
EXTT10=
EXTT11=
EXTT12=
EXTT13=
EXTT14=
EXTT15=
EXTT16=
EXTT17=
EXTT18=
PLAYORDER=
